<svg xmlns="http://www.w3.org/2000/svg" viewBox="0 0 300 450">
  <!-- Background -->
  <rect width="300" height="450" fill="#e0e0e0" />
  
  <!-- Book spine effect -->
  <rect x="0" y="0" width="40" height="450" fill="#d0d0d0" />
  <rect x="40" y="0" width="10" height="450" fill="#c0c0c0" />
  
  <!-- Book title placeholder -->
  <rect x="80" y="100" width="180" height="30" rx="5" fill="#a0a0a0" />
  <rect x="80" y="150" width="140" height="30" rx="5" fill="#a0a0a0" />
  
  <!-- Author placeholder -->
  <rect x="80" y="220" width="120" height="20" rx="5" fill="#b0b0b0" />
  
  <!-- Book icon -->
  <g transform="translate(150, 300) scale(2)">
    <path d="M7,2 L17,2 C18.1046,2 19,2.89543 19,4 L19,20 C19,21.1046 18.1046,22 17,22 L7,22 C5.89543,22 5,21.1046 5,20 L5,4 C5,2.89543 5.89543,2 7,2 Z" fill="#808080" />
    <path d="M12,18 C10.3431,18 9,16.6569 9,15 C9,13.3431 10.3431,12 12,12 C13.6569,12 15,13.3431 15,15 C15,16.6569 13.6569,18 12,18 Z" fill="#606060" />
    <path d="M8,7 L16,7 L16,9 L8,9 L8,7 Z" fill="#606060" />
  </g>
  
  <!-- Text -->
  <text x="150" y="400" font-family="Arial, sans-serif" font-size="20" text-anchor="middle" fill="#505050">Cover Not Available</text>
</svg>
